<?xml version="1.0" encoding="UTF-8"?>
<!DOCTYPE svg PUBLIC "-//W3C//DTD SVG 1.1//EN" "http://www.w3.org/Graphics/SVG/1.1/DTD/svg11.dtd">
<svg xmlns="http://www.w3.org/2000/svg" version="1.1" width="40px" height="40px" style="shape-rendering:geometricPrecision; text-rendering:geometricPrecision; image-rendering:optimizeQuality; fill-rule:evenodd; clip-rule:evenodd" xmlns:xlink="http://www.w3.org/1999/xlink">
<g><path style="opacity:0.988" fill="#020101" d="M 1.5,1.5 C 13.5,1.5 25.5,1.5 37.5,1.5C 37.5,13.5 37.5,25.5 37.5,37.5C 25.5,37.5 13.5,37.5 1.5,37.5C 1.5,25.5 1.5,13.5 1.5,1.5 Z"/></g>
<g><path style="opacity:1" fill="#bdb795" d="M 12.5,13.5 C 17.2137,13.1734 21.8804,13.5067 26.5,14.5C 24.1667,14.8333 21.8333,15.1667 19.5,15.5C 16.7305,15.4714 14.3972,14.8048 12.5,13.5 Z"/></g>
<g><path style="opacity:1" fill="#908368" d="M 16.5,21.5 C 16.1583,20.6618 15.4916,20.3284 14.5,20.5C 14.238,19.0222 14.5713,17.6888 15.5,16.5C 17.7466,17.3742 20.0799,17.7076 22.5,17.5C 22.5,18.8333 22.5,20.1667 22.5,21.5C 20.5,21.5 18.5,21.5 16.5,21.5 Z"/></g>
<g><path style="opacity:1" fill="#dbd4b2" d="M 14.5,20.5 C 15.4916,20.3284 16.1583,20.6618 16.5,21.5C 17.4919,23.0265 18.9919,23.6932 21,23.5C 22.7159,23.2517 24.2159,22.585 25.5,21.5C 26.5937,22.868 26.2603,24.0347 24.5,25C 21.8333,25.6667 19.1667,25.6667 16.5,25C 14.9632,23.8904 14.2965,22.3904 14.5,20.5 Z"/></g>
</svg>
